<svg xmlns="http://www.w3.org/2000/svg" xmlns:xlink="http://www.w3.org/1999/xlink" width="500" zoomAndPan="magnify" viewBox="0 0 375 374.999991" height="500" preserveAspectRatio="xMidYMid meet" version="1.0"><defs><g/><clipPath id="464bf65f89"><path d="M 53.78125 144 L 290 144 L 290 222.914062 L 53.78125 222.914062 Z M 53.78125 144 " clip-rule="nonzero"/></clipPath><clipPath id="fc94c52be7"><path d="M 141 210 L 158 210 L 158 222.914062 L 141 222.914062 Z M 141 210 " clip-rule="nonzero"/></clipPath><clipPath id="146c454353"><path d="M 159 211 L 174 211 L 174 222.914062 L 159 222.914062 Z M 159 211 " clip-rule="nonzero"/></clipPath><clipPath id="9b74f989ff"><path d="M 196 42.191406 L 356.25 42.191406 L 356.25 289 L 196 289 Z M 196 42.191406 " clip-rule="nonzero"/></clipPath><clipPath id="f80f5e1bfa"><path d="M 37.5 115 L 197 115 L 197 354.941406 L 37.5 354.941406 Z M 37.5 115 " clip-rule="nonzero"/></clipPath><clipPath id="5597a4587a"><path d="M 99 127.066406 L 111.941406 127.066406 L 111.941406 143 L 99 143 Z M 99 127.066406 " clip-rule="nonzero"/></clipPath><clipPath id="68ae0e47ac"><path d="M 92 146 L 102 146 L 102 157.066406 L 92 157.066406 Z M 92 146 " clip-rule="nonzero"/></clipPath><clipPath id="4a1a6a7431"><path d="M 87.941406 136 L 95 136 L 95 144 L 87.941406 144 Z M 87.941406 136 " clip-rule="nonzero"/></clipPath><clipPath id="d718072a0a"><path d="M 74.609375 223.003906 L 300.359375 223.003906 L 300.359375 260.503906 L 74.609375 260.503906 Z M 74.609375 223.003906 " clip-rule="nonzero"/></clipPath></defs><g clip-path="url(#464bf65f89)"><path fill="#d80000" d="M 246.164062 174.644531 L 236.539062 151.894531 C 250.210938 156.226562 265.003906 167.125 265.003906 167.125 L 265.277344 174.558594 Z M 99.554688 194.78125 C 105.773438 191.347656 106.84375 182.34375 106.84375 182.34375 C 114.992188 182.773438 143.503906 174.839844 143.503906 174.839844 C 138.359375 184.058594 99.554688 194.78125 99.554688 194.78125 Z M 126.066406 218.183594 L 106.414062 217.238281 L 108.503906 217.023438 L 108.503906 208.679688 L 106.414062 208.679688 L 126.066406 205.105469 Z M 62.679688 217.539062 L 65.179688 210.679688 L 91.265625 210.324219 L 95.339844 217.539062 Z M 75.019531 184.296875 C 74.804688 183.464844 74.453125 182.160156 74.15625 181.058594 L 75.746094 181.039062 C 75.347656 182.097656 74.976562 183.363281 75.019531 184.296875 Z M 289.503906 177.679688 C 286.476562 174.464844 277.941406 173.734375 277.941406 173.734375 C 266.5625 164.007812 253.53125 153.726562 232.609375 147.429688 C 214.328125 141.921875 169.425781 146.363281 158.378906 147.574219 C 156.757812 147.75 155.191406 148.277344 153.792969 149.125 L 125.933594 165.980469 L 127.445312 166.515625 L 153.886719 150.425781 C 155.402344 149.5 157.128906 148.980469 158.90625 148.910156 L 196.574219 147.429688 C 200.492188 148.160156 199.511719 149.996094 199.511719 149.996094 L 184.339844 168.105469 C 160.117188 167.613281 125 174.832031 125 174.832031 C 128.792969 170.429688 164.519531 166.757812 164.519531 166.757812 C 65.78125 167.492188 62.601562 181.195312 62.601562 181.195312 L 73.808594 181.0625 C 74.105469 184.195312 74.636719 190.355469 74.695312 194.683594 L 76.371094 181.035156 L 96.15625 180.796875 C 95.789062 193.828125 89.457031 195.207031 89.457031 195.207031 C 89.457031 195.207031 82.875 195.945312 74.691406 196.429688 C 74.703125 195.894531 74.707031 195.308594 74.695312 194.683594 L 74.480469 196.441406 C 73.617188 196.492188 72.734375 196.539062 71.835938 196.582031 C 62.386719 197.042969 62.753906 189.699219 62.753906 189.699219 L 58.714844 189.882812 L 53.941406 196.582031 L 55.503906 199.058594 L 55.503906 214.382812 L 53.941406 214.382812 L 53.941406 221.726562 L 60.367188 221.449219 L 62.019531 219.980469 L 97.074219 220.257812 L 101.753906 223.011719 L 134.054688 222.550781 C 134.054688 222.550781 138 187.222656 151.304688 181.992188 C 164.613281 176.761719 169.199219 183.554688 169.199219 183.554688 L 178.101562 183.640625 L 169.382812 177.496094 L 191.40625 177.679688 L 191.5 169.144531 L 203.796875 153.359375 C 205.90625 149.78125 216.089844 148.039062 230.957031 150.515625 C 231.417969 150.59375 231.882812 150.679688 232.347656 150.777344 L 240.867188 170.613281 C 240.867188 170.613281 216.273438 170.613281 210.125 170.523438 C 203.976562 170.429688 205.539062 168.914062 205.539062 168.914062 L 211.59375 168.914062 C 218.753906 167.308594 213.523438 159.875 204.527344 159.875 C 195.535156 159.875 196.820312 167.949219 196.820312 167.949219 L 193.148438 167.949219 L 193.148438 177.953125 L 245.054688 177.953125 L 233.441406 151.027344 C 234.246094 151.21875 235.058594 151.441406 235.878906 151.691406 L 245.414062 175.492188 L 245.734375 177.402344 L 267.570312 178.503906 L 250.78125 184.378906 L 289.042969 184.929688 L 286.75 180.613281 C 287.851562 180.339844 289.503906 177.679688 289.503906 177.679688 " fill-opacity="1" fill-rule="nonzero"/></g><path fill="#d80000" d="M 63.859375 181.738281 L 62.359375 181.738281 L 59.214844 189.097656 L 62.320312 189.097656 C 61.25 186.644531 62.070312 184.191406 63.859375 181.738281 " fill-opacity="1" fill-rule="nonzero"/><g clip-path="url(#fc94c52be7)"><path fill="#d80000" d="M 141.574219 223.011719 L 151.007812 223.011719 L 157.867188 210.324219 L 149.9375 210.324219 L 141.574219 223.011719 " fill-opacity="1" fill-rule="nonzero"/></g><g clip-path="url(#146c454353)"><path fill="#d80000" d="M 159.019531 222.113281 L 167.121094 222.113281 L 173.011719 211.21875 L 166.199219 211.21875 L 159.019531 222.113281 " fill-opacity="1" fill-rule="nonzero"/></g><path fill="#d80000" d="M 176.019531 221.5625 L 183.304688 221.5625 L 188.597656 211.769531 L 182.476562 211.769531 L 176.019531 221.5625 " fill-opacity="1" fill-rule="nonzero"/><path fill="#d80000" d="M 192.886719 221.117188 L 199.507812 221.117188 L 204.320312 212.214844 L 198.753906 212.214844 L 192.886719 221.117188 " fill-opacity="1" fill-rule="nonzero"/><path fill="#d80000" d="M 269.996094 216.667969 L 271.238281 215.324219 L 274.960938 215.320312 C 274.292969 213.933594 272.628906 212.953125 270.679688 212.953125 C 268.964844 212.953125 267.476562 213.714844 266.6875 214.839844 L 266.683594 214.835938 L 213.414062 213.796875 L 210.402344 220.605469 L 267.628906 219.441406 L 267.625 219.433594 C 268.4375 220.023438 269.507812 220.382812 270.679688 220.382812 C 272.582031 220.382812 274.214844 219.445312 274.914062 218.113281 L 271.167969 218.125 L 269.996094 216.667969 " fill-opacity="1" fill-rule="nonzero"/><g clip-path="url(#9b74f989ff)"><path fill="#000000" d="M 196.847656 42.316406 L 199.515625 42.296875 L 200.851562 42.285156 L 202.183594 42.308594 L 204.855469 42.363281 L 207.523438 42.480469 L 208.859375 42.542969 L 210.191406 42.636719 L 212.859375 42.824219 L 215.519531 43.078125 L 216.851562 43.207031 L 218.179688 43.371094 C 219.0625 43.476562 219.949219 43.582031 220.835938 43.699219 L 223.480469 44.09375 C 223.921875 44.160156 224.367188 44.21875 224.804688 44.296875 L 226.125 44.527344 L 227.445312 44.753906 C 227.886719 44.835938 228.328125 44.898438 228.765625 44.996094 C 230.515625 45.351562 232.269531 45.679688 234.007812 46.089844 L 235.316406 46.386719 L 235.96875 46.53125 L 236.621094 46.691406 L 239.21875 47.351562 C 253.164062 51.03125 266.347656 56.539062 278.773438 63.867188 C 280.308594 64.800781 281.855469 65.714844 283.359375 66.699219 C 284.882812 67.652344 286.363281 68.667969 287.855469 69.671875 C 288.597656 70.175781 289.324219 70.707031 290.058594 71.222656 L 291.160156 72.003906 L 292.242188 72.808594 C 292.953125 73.347656 293.6875 73.878906 294.402344 74.425781 L 296.527344 76.089844 C 299.335938 78.335938 302.097656 80.65625 304.746094 83.09375 L 305.742188 84 C 306.074219 84.308594 306.398438 84.621094 306.722656 84.929688 L 308.679688 86.796875 C 309.949219 88.074219 311.246094 89.332031 312.472656 90.652344 C 322.511719 101.164062 330.9375 112.84375 337.746094 125.691406 C 344.511719 138.476562 349.6875 152.164062 352.839844 166.363281 L 353.390625 169.035156 L 353.664062 170.371094 L 353.90625 171.710938 L 354.375 174.398438 L 354.78125 177.09375 C 354.84375 177.546875 354.921875 177.992188 354.972656 178.445312 L 355.140625 179.796875 C 355.25 180.703125 355.367188 181.605469 355.457031 182.511719 L 355.710938 185.222656 C 355.75 185.675781 355.804688 186.128906 355.828125 186.582031 L 355.914062 187.941406 C 355.96875 188.851562 356.039062 189.757812 356.082031 190.667969 L 356.175781 193.390625 C 356.1875 193.84375 356.214844 194.300781 356.214844 194.753906 L 356.226562 196.117188 C 356.234375 197.027344 356.25 197.9375 356.238281 198.84375 C 356.210938 202.480469 356.027344 206.113281 355.730469 209.738281 C 355.4375 213.359375 355.003906 216.96875 354.4375 220.554688 C 353.871094 224.140625 353.175781 227.707031 352.347656 231.238281 C 351.519531 234.769531 350.578125 238.269531 349.496094 241.722656 L 348.648438 244.308594 C 348.515625 244.738281 348.363281 245.164062 348.214844 245.59375 L 347.765625 246.878906 L 347.542969 247.519531 L 347.308594 248.15625 L 346.835938 249.425781 C 346.523438 250.273438 346.191406 251.113281 345.859375 251.953125 C 343.199219 258.667969 340.046875 265.136719 336.402344 271.371094 C 334.585938 274.46875 332.65625 277.496094 330.613281 280.441406 C 328.570312 283.382812 326.417969 286.242188 324.136719 288.992188 L 323.554688 288.578125 C 325.386719 285.527344 327.144531 282.453125 328.808594 279.335938 C 330.472656 276.214844 332.042969 273.054688 333.511719 269.859375 C 336.457031 263.480469 338.988281 256.945312 341.113281 250.25 C 341.378906 249.414062 341.648438 248.582031 341.890625 247.742188 L 342.261719 246.488281 L 342.449219 245.859375 L 342.621094 245.226562 C 342.847656 244.386719 343.097656 243.546875 343.320312 242.703125 L 343.976562 240.171875 C 344.8125 236.78125 345.554688 233.375 346.175781 229.949219 C 346.796875 226.523438 347.328125 223.082031 347.730469 219.628906 L 348.015625 217.039062 C 348.105469 216.171875 348.175781 215.308594 348.253906 214.441406 L 348.316406 213.792969 L 348.363281 213.144531 L 348.457031 211.84375 C 348.484375 211.417969 348.523438 210.980469 348.546875 210.546875 L 348.617188 209.246094 L 348.691406 207.945312 C 348.714844 207.515625 348.722656 207.078125 348.742188 206.644531 L 348.789062 205.34375 L 348.8125 204.691406 L 348.824219 204.039062 L 348.871094 201.4375 L 348.871094 198.832031 C 348.824219 195.363281 348.742188 191.890625 348.496094 188.433594 L 348.414062 187.132812 C 348.390625 186.707031 348.34375 186.269531 348.308594 185.835938 L 348.09375 183.242188 C 348.054688 182.816406 348 182.386719 347.949219 181.949219 L 347.808594 180.65625 L 347.664062 179.363281 C 347.617188 178.933594 347.554688 178.503906 347.5 178.078125 L 347.167969 175.496094 L 346.796875 172.914062 L 346.601562 171.628906 L 345.921875 167.773438 C 344.632812 160.929688 342.890625 154.203125 340.691406 147.597656 C 340.160156 145.9375 339.542969 144.3125 338.957031 142.667969 C 338.648438 141.855469 338.328125 141.046875 338.015625 140.234375 L 337.542969 139.015625 L 337.035156 137.8125 C 335.71875 134.582031 334.226562 131.429688 332.679688 128.304688 C 320.148438 103.371094 300.664062 81.910156 276.910156 66.910156 C 270.960938 63.152344 264.78125 59.816406 258.375 56.902344 L 257.175781 56.355469 C 256.777344 56.167969 256.367188 56.003906 255.964844 55.828125 L 253.539062 54.792969 L 251.089844 53.8125 L 249.863281 53.324219 L 248.625 52.867188 C 247.796875 52.566406 246.976562 52.25 246.144531 51.957031 L 243.648438 51.101562 C 242.816406 50.804688 241.976562 50.550781 241.136719 50.28125 L 239.875 49.882812 L 239.246094 49.683594 C 239.035156 49.617188 238.820312 49.5625 238.613281 49.5 L 236.074219 48.761719 L 235.433594 48.59375 L 234.796875 48.425781 L 233.515625 48.089844 C 231.8125 47.621094 230.09375 47.238281 228.382812 46.832031 C 227.953125 46.722656 227.527344 46.644531 227.089844 46.546875 L 225.792969 46.285156 L 224.496094 46.011719 C 224.070312 45.921875 223.628906 45.847656 223.195312 45.769531 L 220.589844 45.285156 C 219.71875 45.140625 218.847656 45.007812 217.972656 44.867188 L 216.667969 44.660156 L 215.351562 44.480469 L 212.726562 44.132812 L 210.089844 43.847656 L 208.765625 43.714844 L 207.445312 43.605469 L 204.800781 43.386719 L 202.152344 43.246094 L 200.828125 43.167969 L 199.5 43.125 L 196.84375 43.042969 Z M 196.847656 42.316406 " fill-opacity="1" fill-rule="nonzero"/></g><g clip-path="url(#f80f5e1bfa)"><path fill="#000000" d="M 196.847656 354.820312 L 194.25 354.839844 L 192.949219 354.851562 C 192.519531 354.851562 192.082031 354.835938 191.648438 354.832031 L 189.046875 354.78125 C 188.179688 354.753906 187.3125 354.707031 186.445312 354.671875 C 184.710938 354.613281 182.980469 354.464844 181.25 354.347656 C 180.820312 354.324219 180.382812 354.273438 179.953125 354.234375 L 178.65625 354.109375 C 177.789062 354.027344 176.925781 353.957031 176.0625 353.84375 L 173.476562 353.523438 C 173.046875 353.476562 172.621094 353.410156 172.191406 353.347656 L 170.910156 353.15625 C 169.183594 352.921875 167.476562 352.601562 165.761719 352.300781 C 162.339844 351.648438 158.933594 350.941406 155.5625 350.0625 C 153.867188 349.652344 152.199219 349.160156 150.515625 348.695312 C 150.097656 348.585938 149.683594 348.449219 149.265625 348.320312 L 148.015625 347.9375 L 146.765625 347.550781 C 146.347656 347.425781 145.9375 347.28125 145.523438 347.144531 L 143.042969 346.3125 C 142.222656 346.027344 141.402344 345.71875 140.582031 345.425781 L 139.351562 344.976562 C 138.945312 344.824219 138.539062 344.664062 138.132812 344.503906 L 135.695312 343.550781 C 129.210938 340.917969 122.929688 337.863281 116.847656 334.390625 C 92.519531 320.542969 71.960938 299.933594 58.082031 275.386719 L 57.421875 274.242188 L 56.792969 273.082031 L 55.535156 270.757812 L 54.328125 268.402344 C 54.128906 268.007812 53.921875 267.621094 53.730469 267.222656 L 53.160156 266.035156 C 51.589844 262.871094 50.179688 259.636719 48.824219 256.371094 L 47.839844 253.914062 L 47.59375 253.296875 L 47.363281 252.675781 L 46.898438 251.433594 L 46.4375 250.191406 L 46.1875 249.578125 L 45.972656 248.949219 L 45.109375 246.4375 C 44.007812 243.078125 42.96875 239.691406 42.097656 236.257812 C 40.316406 229.386719 39.050781 222.425781 38.300781 215.367188 C 37.945312 211.839844 37.675781 208.304688 37.589844 204.761719 L 37.53125 202.769531 C 37.53125 202.550781 37.53125 202.328125 37.53125 202.105469 L 37.515625 199.449219 C 37.503906 198.566406 37.542969 197.679688 37.570312 196.796875 L 37.65625 194.140625 C 38.246094 179.929688 40.828125 166.089844 45.398438 152.625 C 47.667969 145.964844 50.417969 139.507812 53.640625 133.257812 L 55.503906 129.789062 C 55.710938 129.402344 55.910156 129.015625 56.136719 128.644531 L 57.464844 126.386719 C 57.910156 125.632812 58.34375 124.878906 58.804688 124.136719 C 59.746094 122.667969 60.691406 121.203125 61.644531 119.742188 C 62.640625 118.316406 63.640625 116.886719 64.65625 115.480469 L 65.261719 115.859375 C 64.484375 117.410156 63.695312 118.945312 62.902344 120.480469 L 60.667969 125.140625 L 58.566406 129.855469 C 58.386719 130.242188 58.234375 130.644531 58.070312 131.042969 L 57.574219 132.226562 L 56.601562 134.609375 C 54.082031 140.96875 51.953125 147.460938 50.214844 154.082031 C 46.757812 167.273438 44.945312 180.691406 44.777344 194.332031 L 44.765625 196.871094 C 44.765625 197.714844 44.746094 198.5625 44.78125 199.40625 L 44.835938 201.941406 C 44.835938 202.15625 44.835938 202.371094 44.851562 202.578125 L 44.882812 203.210938 L 45 205.742188 L 45.027344 206.375 L 45.242188 209.539062 C 45.269531 209.964844 45.296875 210.382812 45.339844 210.800781 L 45.453125 212.0625 L 45.566406 213.328125 C 45.601562 213.746094 45.636719 214.167969 45.6875 214.585938 C 46.402344 221.304688 47.449219 227.996094 48.957031 234.589844 C 49.671875 237.898438 50.558594 241.167969 51.496094 244.421875 L 52.234375 246.847656 L 52.417969 247.457031 L 52.617188 248.0625 L 53.015625 249.265625 L 53.414062 250.472656 L 53.613281 251.078125 L 53.828125 251.675781 L 54.683594 254.070312 C 55.878906 257.242188 57.128906 260.398438 58.542969 263.492188 L 59.0625 264.652344 C 59.234375 265.039062 59.425781 265.417969 59.609375 265.804688 L 60.707031 268.101562 L 61.867188 270.367188 L 62.445312 271.503906 L 63.054688 272.625 L 64.273438 274.859375 L 65.542969 277.070312 C 65.757812 277.4375 65.960938 277.808594 66.183594 278.171875 L 66.847656 279.261719 L 67.511719 280.347656 C 67.730469 280.710938 67.945312 281.078125 68.179688 281.433594 C 69.101562 282.863281 70.003906 284.304688 70.96875 285.703125 L 71.683594 286.761719 L 72.039062 287.289062 L 72.410156 287.808594 L 73.886719 289.886719 C 74.132812 290.238281 74.386719 290.574219 74.644531 290.917969 L 75.40625 291.9375 C 75.914062 292.621094 76.421875 293.308594 76.953125 293.96875 L 78.527344 295.980469 C 79.0625 296.640625 79.605469 297.296875 80.148438 297.953125 L 80.960938 298.9375 L 81.792969 299.90625 L 83.464844 301.835938 L 85.175781 303.726562 C 85.460938 304.042969 85.746094 304.363281 86.039062 304.671875 L 86.921875 305.597656 C 89.246094 308.085938 91.691406 310.464844 94.183594 312.792969 L 96.074219 314.519531 C 96.382812 314.804688 96.710938 315.089844 97.03125 315.367188 L 98.960938 317.046875 C 99.28125 317.332031 99.617188 317.59375 99.941406 317.867188 L 101.910156 319.503906 C 109.90625 326.007812 118.464844 331.652344 127.59375 336.433594 C 136.71875 341.21875 146.230469 345.042969 156.125 347.914062 C 159.417969 348.894531 162.753906 349.710938 166.105469 350.46875 C 167.789062 350.820312 169.46875 351.195312 171.164062 351.488281 L 172.433594 351.71875 C 172.859375 351.796875 173.277344 351.878906 173.703125 351.941406 L 176.25 352.34375 C 177.105469 352.488281 177.960938 352.589844 178.808594 352.707031 L 180.089844 352.878906 C 180.519531 352.933594 180.945312 353 181.375 353.042969 C 183.085938 353.21875 184.796875 353.433594 186.515625 353.554688 C 187.371094 353.625 188.226562 353.699219 189.09375 353.761719 L 191.671875 353.90625 C 192.101562 353.929688 192.527344 353.957031 192.964844 353.976562 L 196.84375 354.105469 Z M 196.847656 354.820312 " fill-opacity="1" fill-rule="nonzero"/></g><g clip-path="url(#5597a4587a)"><path fill="#434336" d="M 109.960938 135.75 C 110.355469 135.65625 110.742188 135.527344 111.136719 135.429688 C 111.515625 135.339844 111.941406 135.253906 111.890625 134.765625 C 111.847656 134.34375 111.445312 134.308594 111.089844 134.269531 C 109.84375 134.125 108.886719 133.453125 107.976562 132.648438 C 106.625 131.453125 106.417969 129.792969 106.054688 128.1875 C 106.019531 128.035156 106.011719 127.875 105.980469 127.722656 C 105.910156 127.398438 105.773438 127.09375 105.378906 127.125 C 104.996094 127.15625 104.917969 127.460938 104.875 127.800781 C 104.71875 129.171875 104.453125 130.503906 103.644531 131.683594 C 102.769531 132.957031 101.835938 134.023438 100.035156 133.515625 C 99.660156 133.410156 99.105469 133.371094 99.0625 134.011719 C 99.132812 134.492188 99.460938 134.671875 99.824219 134.796875 C 102.398438 135.683594 103.785156 137.582031 103.871094 140.328125 C 103.886719 140.796875 103.929688 141.265625 103.972656 141.730469 C 104 142.070312 103.976562 142.503906 104.445312 142.507812 C 104.980469 142.511719 104.941406 142.039062 104.964844 141.671875 C 105.035156 140.667969 105.230469 139.695312 105.679688 138.789062 C 106.558594 137.019531 108.117188 136.183594 109.960938 135.75 Z M 109.09375 134.890625 C 106.984375 135.328125 105.6875 136.554688 104.664062 138.222656 C 104.054688 136.734375 103.398438 135.46875 102.164062 134.550781 C 103.863281 133.742188 104.652344 132.269531 105.472656 130.640625 C 106.035156 132.585938 107.375 133.742188 109.09375 134.890625 Z M 109.09375 134.890625 " fill-opacity="1" fill-rule="nonzero"/></g><g clip-path="url(#68ae0e47ac)"><path fill="#434336" d="M 99.828125 152.246094 C 100.105469 152.179688 100.378906 152.085938 100.660156 152.019531 C 100.929688 151.957031 101.230469 151.894531 101.195312 151.550781 C 101.164062 151.25 100.878906 151.226562 100.628906 151.195312 C 99.746094 151.09375 99.066406 150.617188 98.421875 150.046875 C 97.460938 149.199219 97.3125 148.023438 97.058594 146.882812 C 97.035156 146.777344 97.027344 146.664062 97.003906 146.554688 C 96.953125 146.324219 96.859375 146.109375 96.578125 146.128906 C 96.304688 146.152344 96.25 146.367188 96.222656 146.609375 C 96.109375 147.582031 95.921875 148.527344 95.347656 149.363281 C 94.726562 150.265625 94.066406 151.023438 92.789062 150.664062 C 92.523438 150.589844 92.128906 150.558594 92.097656 151.015625 C 92.148438 151.355469 92.382812 151.480469 92.640625 151.570312 C 94.464844 152.199219 95.449219 153.546875 95.507812 155.492188 C 95.519531 155.824219 95.550781 156.15625 95.578125 156.488281 C 95.601562 156.726562 95.582031 157.035156 95.917969 157.039062 C 96.296875 157.039062 96.269531 156.707031 96.285156 156.445312 C 96.332031 155.734375 96.472656 155.042969 96.789062 154.402344 C 97.414062 153.148438 98.519531 152.554688 99.828125 152.246094 Z M 99.210938 151.636719 C 97.714844 151.945312 96.796875 152.816406 96.070312 154 C 95.636719 152.945312 95.175781 152.046875 94.296875 151.398438 C 95.503906 150.824219 96.0625 149.777344 96.644531 148.625 C 97.042969 150.003906 97.992188 150.824219 99.210938 151.636719 Z M 99.210938 151.636719 " fill-opacity="1" fill-rule="nonzero"/></g><g clip-path="url(#4a1a6a7431)"><path fill="#434336" d="M 93.515625 140.507812 C 93.71875 140.460938 93.917969 140.394531 94.117188 140.34375 C 94.3125 140.296875 94.527344 140.253906 94.503906 140.003906 C 94.480469 139.789062 94.273438 139.769531 94.09375 139.75 C 93.457031 139.675781 92.96875 139.332031 92.503906 138.921875 C 91.8125 138.308594 91.703125 137.460938 91.519531 136.640625 C 91.5 136.5625 91.496094 136.480469 91.480469 136.402344 C 91.445312 136.234375 91.375 136.078125 91.171875 136.09375 C 90.976562 136.109375 90.9375 136.265625 90.914062 136.441406 C 90.835938 137.140625 90.699219 137.824219 90.285156 138.425781 C 89.839844 139.078125 89.359375 139.625 88.4375 139.363281 C 88.25 139.3125 87.964844 139.292969 87.941406 139.621094 C 87.976562 139.863281 88.144531 139.957031 88.332031 140.019531 C 89.648438 140.472656 90.359375 141.445312 90.402344 142.851562 C 90.410156 143.089844 90.429688 143.328125 90.453125 143.566406 C 90.46875 143.738281 90.453125 143.964844 90.695312 143.964844 C 90.96875 143.964844 90.949219 143.726562 90.960938 143.535156 C 90.996094 143.023438 91.097656 142.527344 91.324219 142.0625 C 91.777344 141.15625 92.574219 140.730469 93.515625 140.507812 Z M 93.074219 140.066406 C 91.992188 140.292969 91.328125 140.917969 90.808594 141.773438 C 90.496094 141.011719 90.160156 140.363281 89.527344 139.894531 C 90.398438 139.480469 90.800781 138.726562 91.222656 137.894531 C 91.507812 138.890625 92.191406 139.480469 93.074219 140.066406 Z M 93.074219 140.066406 " fill-opacity="1" fill-rule="nonzero"/></g><g clip-path="url(#d718072a0a)"><path fill="#ffffff" d="M 300.402344 223.03125 L 74.609375 223.03125 L 91.386719 241.671875 L 74.609375 260.316406 L 300.402344 260.316406 L 283.625 241.671875 Z M 300.402344 223.03125 " fill-opacity="1" fill-rule="nonzero"/></g><g fill="#000000" fill-opacity="1"><g transform="translate(140.600693, 202.844151)"><g><path d="M 11.359375 -4.140625 L 11.0625 -6.59375 L 8.671875 0 L 0.734375 0 L 5.734375 -13.765625 L 19.359375 -13.765625 C 20.953125 -13.765625 22.09375 -13.441406 22.78125 -12.796875 C 23.476562 -12.148438 23.578125 -11.144531 23.078125 -9.78125 L 22.25 -7.53125 C 22.15625 -7.238281 21.988281 -6.953125 21.75 -6.671875 C 21.507812 -6.398438 21.226562 -6.171875 20.90625 -5.984375 L 17.890625 -4.46875 C 17.710938 -4.351562 17.523438 -4.269531 17.328125 -4.21875 C 17.128906 -4.164062 16.929688 -4.140625 16.734375 -4.140625 Z M 12.46875 -10.453125 L 11.375 -7.46875 L 13.21875 -7.46875 C 13.519531 -7.46875 13.8125 -7.566406 14.09375 -7.765625 C 14.375 -7.972656 14.5625 -8.21875 14.65625 -8.5 L 14.984375 -9.421875 C 15.085938 -9.710938 15.070312 -9.957031 14.9375 -10.15625 C 14.8125 -10.351562 14.609375 -10.453125 14.328125 -10.453125 Z M 12.46875 -10.453125 "/></g></g></g><g fill="#000000" fill-opacity="1"><g transform="translate(161.23424, 202.844151)"><g><path d="M 20.140625 0 L 12.203125 0 L 13.140625 -2.578125 L 11.296875 -2.578125 L 10.109375 -3.765625 L 8.265625 0 L 0.296875 0 L 5.375 -10.390625 C 5.507812 -10.710938 5.691406 -11.007812 5.921875 -11.28125 C 6.160156 -11.5625 6.4375 -11.789062 6.75 -11.96875 L 9.75 -13.453125 C 10.101562 -13.660156 10.484375 -13.765625 10.890625 -13.765625 L 20.1875 -13.765625 C 20.382812 -13.765625 20.5625 -13.738281 20.71875 -13.6875 C 20.882812 -13.644531 21.015625 -13.566406 21.109375 -13.453125 L 23.421875 -11.3125 C 23.617188 -11.132812 23.738281 -10.90625 23.78125 -10.625 C 23.820312 -10.351562 23.785156 -10.0625 23.671875 -9.75 Z M 12.96875 -9.421875 L 11.0625 -5.609375 L 14.234375 -5.609375 L 15.609375 -9.421875 C 15.722656 -9.703125 15.707031 -9.941406 15.5625 -10.140625 C 15.425781 -10.347656 15.210938 -10.453125 14.921875 -10.453125 L 14.453125 -10.453125 C 14.148438 -10.453125 13.863281 -10.347656 13.59375 -10.140625 C 13.332031 -9.941406 13.125 -9.703125 12.96875 -9.421875 Z M 12.96875 -9.421875 "/></g></g></g><g fill="#000000" fill-opacity="1"><g transform="translate(182.628854, 202.844151)"><g><path d="M 9.609375 0 L 0.734375 0 L 5.734375 -13.765625 L 20.859375 -13.765625 C 22.453125 -13.765625 23.59375 -13.441406 24.28125 -12.796875 C 24.976562 -12.148438 25.078125 -11.144531 24.578125 -9.78125 L 23.84375 -7.78125 C 23.738281 -7.5 23.539062 -7.21875 23.25 -6.9375 L 21.828125 -5.6875 C 21.566406 -5.445312 21.320312 -5.289062 21.09375 -5.21875 C 20.863281 -5.15625 20.628906 -5.125 20.390625 -5.125 L 20.015625 -5.125 L 22.1875 -0.125 L 22.15625 0 L 13.34375 0 L 11.640625 -5.609375 Z M 13.390625 -10.453125 L 12.265625 -7.34375 L 13.265625 -7.34375 C 13.554688 -7.34375 13.847656 -7.445312 14.140625 -7.65625 C 14.429688 -7.863281 14.625 -8.101562 14.71875 -8.375 L 15.078125 -9.421875 C 15.191406 -9.710938 15.179688 -9.957031 15.046875 -10.15625 C 14.921875 -10.351562 14.710938 -10.453125 14.421875 -10.453125 Z M 13.390625 -10.453125 "/></g></g></g><g fill="#000000" fill-opacity="1"><g transform="translate(204.551979, 202.844151)"><g><path d="M 20.140625 0 L 12.203125 0 L 13.140625 -2.578125 L 11.296875 -2.578125 L 10.109375 -3.765625 L 8.265625 0 L 0.296875 0 L 5.375 -10.390625 C 5.507812 -10.710938 5.691406 -11.007812 5.921875 -11.28125 C 6.160156 -11.5625 6.4375 -11.789062 6.75 -11.96875 L 9.75 -13.453125 C 10.101562 -13.660156 10.484375 -13.765625 10.890625 -13.765625 L 20.1875 -13.765625 C 20.382812 -13.765625 20.5625 -13.738281 20.71875 -13.6875 C 20.882812 -13.644531 21.015625 -13.566406 21.109375 -13.453125 L 23.421875 -11.3125 C 23.617188 -11.132812 23.738281 -10.90625 23.78125 -10.625 C 23.820312 -10.351562 23.785156 -10.0625 23.671875 -9.75 Z M 12.96875 -9.421875 L 11.0625 -5.609375 L 14.234375 -5.609375 L 15.609375 -9.421875 C 15.722656 -9.703125 15.707031 -9.941406 15.5625 -10.140625 C 15.425781 -10.347656 15.210938 -10.453125 14.921875 -10.453125 L 14.453125 -10.453125 C 14.148438 -10.453125 13.863281 -10.347656 13.59375 -10.140625 C 13.332031 -9.941406 13.125 -9.703125 12.96875 -9.421875 Z M 12.96875 -9.421875 "/></g></g></g><g fill="#000000" fill-opacity="1"><g transform="translate(225.946593, 202.844151)"><g><path d="M 20.859375 -7.9375 L 20.015625 -7.484375 C 20.703125 -7.328125 21.171875 -7.015625 21.421875 -6.546875 C 21.671875 -6.085938 21.664062 -5.503906 21.40625 -4.796875 L 20.90625 -3.390625 C 20.800781 -3.085938 20.625 -2.796875 20.375 -2.515625 C 20.132812 -2.242188 19.851562 -2.019531 19.53125 -1.84375 L 16.546875 -0.3125 C 16.359375 -0.195312 16.164062 -0.113281 15.96875 -0.0625 C 15.769531 -0.0195312 15.570312 0 15.375 0 L 0.734375 0 L 5.734375 -13.765625 L 18.625 -13.765625 C 20.21875 -13.765625 21.359375 -13.441406 22.046875 -12.796875 C 22.734375 -12.148438 22.832031 -11.144531 22.34375 -9.78125 L 22.234375 -9.484375 C 22.117188 -9.179688 21.941406 -8.890625 21.703125 -8.609375 C 21.460938 -8.335938 21.179688 -8.113281 20.859375 -7.9375 Z M 9.734375 -3.328125 L 11.71875 -3.328125 C 12 -3.328125 12.273438 -3.398438 12.546875 -3.546875 C 12.816406 -3.703125 13.03125 -3.992188 13.1875 -4.421875 C 13.332031 -4.847656 13.328125 -5.132812 13.171875 -5.28125 C 13.023438 -5.425781 12.8125 -5.5 12.53125 -5.5 L 10.515625 -5.5 Z M 12.78125 -8.234375 C 13.0625 -8.234375 13.34375 -8.3125 13.625 -8.46875 C 13.90625 -8.632812 14.117188 -8.925781 14.265625 -9.34375 C 14.410156 -9.769531 14.40625 -10.0625 14.25 -10.21875 C 14.101562 -10.375 13.894531 -10.453125 13.625 -10.453125 L 12.3125 -10.453125 L 11.515625 -8.234375 Z M 12.78125 -8.234375 "/></g></g></g><g fill="#000000" fill-opacity="1"><g transform="translate(246.664712, 202.844151)"><g><path d="M 9.609375 0 L 0.734375 0 L 5.734375 -13.765625 L 20.859375 -13.765625 C 22.453125 -13.765625 23.59375 -13.441406 24.28125 -12.796875 C 24.976562 -12.148438 25.078125 -11.144531 24.578125 -9.78125 L 23.84375 -7.78125 C 23.738281 -7.5 23.539062 -7.21875 23.25 -6.9375 L 21.828125 -5.6875 C 21.566406 -5.445312 21.320312 -5.289062 21.09375 -5.21875 C 20.863281 -5.15625 20.628906 -5.125 20.390625 -5.125 L 20.015625 -5.125 L 22.1875 -0.125 L 22.15625 0 L 13.34375 0 L 11.640625 -5.609375 Z M 13.390625 -10.453125 L 12.265625 -7.34375 L 13.265625 -7.34375 C 13.554688 -7.34375 13.847656 -7.445312 14.140625 -7.65625 C 14.429688 -7.863281 14.625 -8.101562 14.71875 -8.375 L 15.078125 -9.421875 C 15.191406 -9.710938 15.179688 -9.957031 15.046875 -10.15625 C 14.921875 -10.351562 14.710938 -10.453125 14.421875 -10.453125 Z M 13.390625 -10.453125 "/></g></g></g><g fill="#000000" fill-opacity="1"><g transform="translate(268.587837, 202.844151)"><g><path d="M 9.90625 -1.75 C 9.757812 -1.40625 9.523438 -1.140625 9.203125 -0.953125 L 7.65625 -0.171875 C 7.476562 -0.0546875 7.273438 0 7.046875 0 L 1.1875 0 L 5.546875 -12.015625 C 5.679688 -12.378906 5.921875 -12.648438 6.265625 -12.828125 L 7.78125 -13.609375 C 7.96875 -13.710938 8.175781 -13.765625 8.40625 -13.765625 L 14.265625 -13.765625 Z M 9.90625 -1.75 "/></g></g></g><g fill="#000000" fill-opacity="1"><g transform="translate(279.560123, 202.844151)"><g><path d="M 22.15625 -8.765625 L 20.4375 -4.015625 C 20.320312 -3.703125 20.144531 -3.421875 19.90625 -3.171875 C 19.675781 -2.921875 19.410156 -2.703125 19.109375 -2.515625 L 15.1875 -0.3125 C 15.007812 -0.195312 14.820312 -0.113281 14.625 -0.0625 C 14.4375 -0.0195312 14.242188 0 14.046875 0 L 0.65625 0 L 1.859375 -3.328125 L 10.890625 -3.328125 C 11.191406 -3.328125 11.472656 -3.425781 11.734375 -3.625 C 12.003906 -3.832031 12.191406 -4.078125 12.296875 -4.359375 L 12.546875 -5.015625 L 2.46875 -5.015625 L 4.1875 -9.75 C 4.4375 -10.414062 4.898438 -10.9375 5.578125 -11.3125 L 9.453125 -13.453125 C 9.648438 -13.566406 9.84375 -13.644531 10.03125 -13.6875 C 10.226562 -13.738281 10.414062 -13.765625 10.59375 -13.765625 L 23.96875 -13.765625 L 22.765625 -10.453125 L 13.796875 -10.453125 C 13.492188 -10.453125 13.207031 -10.351562 12.9375 -10.15625 C 12.664062 -9.957031 12.472656 -9.710938 12.359375 -9.421875 L 12.125 -8.765625 Z M 22.15625 -8.765625 "/></g></g></g><g fill="#000000" fill-opacity="1"><g transform="translate(299.707445, 202.844151)"><g><path d="M 20.140625 0 L 12.203125 0 L 13.140625 -2.578125 L 11.296875 -2.578125 L 10.109375 -3.765625 L 8.265625 0 L 0.296875 0 L 5.375 -10.390625 C 5.507812 -10.710938 5.691406 -11.007812 5.921875 -11.28125 C 6.160156 -11.5625 6.4375 -11.789062 6.75 -11.96875 L 9.75 -13.453125 C 10.101562 -13.660156 10.484375 -13.765625 10.890625 -13.765625 L 20.1875 -13.765625 C 20.382812 -13.765625 20.5625 -13.738281 20.71875 -13.6875 C 20.882812 -13.644531 21.015625 -13.566406 21.109375 -13.453125 L 23.421875 -11.3125 C 23.617188 -11.132812 23.738281 -10.90625 23.78125 -10.625 C 23.820312 -10.351562 23.785156 -10.0625 23.671875 -9.75 Z M 12.96875 -9.421875 L 11.0625 -5.609375 L 14.234375 -5.609375 L 15.609375 -9.421875 C 15.722656 -9.703125 15.707031 -9.941406 15.5625 -10.140625 C 15.425781 -10.347656 15.210938 -10.453125 14.921875 -10.453125 L 14.453125 -10.453125 C 14.148438 -10.453125 13.863281 -10.347656 13.59375 -10.140625 C 13.332031 -9.941406 13.125 -9.703125 12.96875 -9.421875 Z M 12.96875 -9.421875 "/></g></g></g><g fill="#000000" fill-opacity="1"><g transform="translate(321.102059, 202.844151)"><g><path d="M 22.15625 -8.765625 L 20.4375 -4.015625 C 20.320312 -3.703125 20.144531 -3.421875 19.90625 -3.171875 C 19.675781 -2.921875 19.410156 -2.703125 19.109375 -2.515625 L 15.1875 -0.3125 C 15.007812 -0.195312 14.820312 -0.113281 14.625 -0.0625 C 14.4375 -0.0195312 14.242188 0 14.046875 0 L 0.65625 0 L 1.859375 -3.328125 L 10.890625 -3.328125 C 11.191406 -3.328125 11.472656 -3.425781 11.734375 -3.625 C 12.003906 -3.832031 12.191406 -4.078125 12.296875 -4.359375 L 12.546875 -5.015625 L 2.46875 -5.015625 L 4.1875 -9.75 C 4.4375 -10.414062 4.898438 -10.9375 5.578125 -11.3125 L 9.453125 -13.453125 C 9.648438 -13.566406 9.84375 -13.644531 10.03125 -13.6875 C 10.226562 -13.738281 10.414062 -13.765625 10.59375 -13.765625 L 23.96875 -13.765625 L 22.765625 -10.453125 L 13.796875 -10.453125 C 13.492188 -10.453125 13.207031 -10.351562 12.9375 -10.15625 C 12.664062 -9.957031 12.472656 -9.710938 12.359375 -9.421875 L 12.125 -8.765625 Z M 22.15625 -8.765625 "/></g></g></g><g fill="#000000" fill-opacity="1"><g transform="translate(95.244933, 246.736801)"><g><path d="M 5.828125 0.34375 C 5.828125 0.164062 5.757812 -0.203125 5.625 -0.765625 C 5.488281 -1.335938 5.285156 -2.046875 5.015625 -2.890625 C 4.753906 -3.734375 4.441406 -4.664062 4.078125 -5.6875 C 3.722656 -6.707031 3.320312 -7.769531 2.875 -8.875 C 2.4375 -9.988281 1.957031 -11.082031 1.4375 -12.15625 C 0.925781 -13.226562 0.382812 -14.226562 -0.1875 -15.15625 L 5.875 -15.15625 C 5.707031 -14.582031 5.640625 -13.9375 5.671875 -13.21875 C 5.710938 -12.5 5.820312 -11.742188 6 -10.953125 C 6.175781 -10.171875 6.394531 -9.378906 6.65625 -8.578125 C 6.925781 -7.785156 7.203125 -7.023438 7.484375 -6.296875 C 7.773438 -5.566406 8.046875 -4.90625 8.296875 -4.3125 C 8.554688 -3.726562 8.765625 -3.242188 8.921875 -2.859375 C 9.078125 -2.472656 9.15625 -2.226562 9.15625 -2.125 L 10.828125 -6.234375 C 11.472656 -7.847656 11.90625 -9.207031 12.125 -10.3125 C 12.34375 -11.425781 12.328125 -12.363281 12.078125 -13.125 C 11.835938 -13.894531 11.347656 -14.570312 10.609375 -15.15625 L 15.625 -15.15625 C 15.289062 -14.695312 14.972656 -14.210938 14.671875 -13.703125 C 14.367188 -13.191406 14.0625 -12.601562 13.75 -11.9375 C 13.4375 -11.28125 13.085938 -10.5 12.703125 -9.59375 C 12.328125 -8.6875 11.890625 -7.625 11.390625 -6.40625 L 8.828125 0 Z M 5.828125 0.34375 "/></g></g></g><g fill="#000000" fill-opacity="1"><g transform="translate(124.681799, 246.736801)"><g><path d="M 0 0 C 0.34375 -0.457031 0.664062 -0.941406 0.96875 -1.453125 C 1.28125 -1.960938 1.585938 -2.546875 1.890625 -3.203125 C 2.203125 -3.867188 2.550781 -4.648438 2.9375 -5.546875 C 3.320312 -6.453125 3.753906 -7.519531 4.234375 -8.75 L 6.828125 -15.15625 L 9.8125 -15.5 C 9.8125 -15.320312 9.878906 -14.945312 10.015625 -14.375 C 10.160156 -13.8125 10.359375 -13.109375 10.609375 -12.265625 C 10.867188 -11.421875 11.179688 -10.488281 11.546875 -9.46875 C 11.910156 -8.445312 12.316406 -7.378906 12.765625 -6.265625 C 13.210938 -5.160156 13.691406 -4.070312 14.203125 -3 C 14.722656 -1.925781 15.269531 -0.925781 15.84375 0 L 9.75 0 C 9.9375 -0.601562 9.988281 -1.351562 9.90625 -2.25 C 9.832031 -3.144531 9.671875 -4.085938 9.421875 -5.078125 L 3.5625 -5.078125 C 3.3125 -3.878906 3.300781 -2.882812 3.53125 -2.09375 C 3.757812 -1.300781 4.257812 -0.601562 5.03125 0 Z M 4.8125 -8.921875 C 4.5625 -8.285156 4.335938 -7.691406 4.140625 -7.140625 C 3.953125 -6.585938 3.796875 -6.078125 3.671875 -5.609375 L 9.28125 -5.609375 C 9.03125 -6.515625 8.734375 -7.40625 8.390625 -8.28125 C 8.054688 -9.15625 7.703125 -9.953125 7.328125 -10.671875 C 6.960938 -11.398438 6.597656 -11.992188 6.234375 -12.453125 Z M 6.828125 -16.5625 L 9.21875 -18.953125 L 9.5625 -18.59375 L 7.1875 -16.21875 Z M 6.828125 -16.5625 "/></g></g></g><g fill="#000000" fill-opacity="1"><g transform="translate(153.999462, 246.736801)"><g><path d="M 5.0625 -6.40625 C 4.476562 -6.675781 3.90625 -6.972656 3.34375 -7.296875 C 2.789062 -7.617188 2.285156 -7.972656 1.828125 -8.359375 C 1.378906 -8.753906 1.019531 -9.203125 0.75 -9.703125 C 0.476562 -10.203125 0.34375 -10.769531 0.34375 -11.40625 C 0.34375 -12.09375 0.519531 -12.6875 0.875 -13.1875 C 1.226562 -13.695312 1.695312 -14.125 2.28125 -14.46875 C 2.875 -14.8125 3.523438 -15.066406 4.234375 -15.234375 C 4.953125 -15.398438 5.671875 -15.484375 6.390625 -15.484375 C 7.191406 -15.484375 7.941406 -15.398438 8.640625 -15.234375 C 9.335938 -15.066406 9.976562 -14.960938 10.5625 -14.921875 C 10.8125 -14.910156 11.050781 -14.914062 11.28125 -14.9375 C 11.519531 -14.96875 11.765625 -15.039062 12.015625 -15.15625 C 11.878906 -14.550781 11.742188 -13.828125 11.609375 -12.984375 C 11.484375 -12.140625 11.390625 -11.125 11.328125 -9.9375 C 10.953125 -11.1875 10.503906 -12.175781 9.984375 -12.90625 C 9.460938 -13.632812 8.910156 -14.15625 8.328125 -14.46875 C 7.753906 -14.789062 7.195312 -14.953125 6.65625 -14.953125 C 6.363281 -14.953125 6.0625 -14.867188 5.75 -14.703125 C 5.445312 -14.535156 5.171875 -14.316406 4.921875 -14.046875 C 4.679688 -13.773438 4.503906 -13.460938 4.390625 -13.109375 C 4.285156 -12.753906 4.285156 -12.382812 4.390625 -12 C 4.492188 -11.613281 4.726562 -11.234375 5.09375 -10.859375 C 5.46875 -10.492188 6.007812 -10.15625 6.71875 -9.84375 C 7.28125 -9.59375 7.851562 -9.34375 8.4375 -9.09375 C 9.03125 -8.851562 9.601562 -8.585938 10.15625 -8.296875 C 10.707031 -8.015625 11.203125 -7.695312 11.640625 -7.34375 C 12.085938 -6.988281 12.441406 -6.582031 12.703125 -6.125 C 12.960938 -5.664062 13.09375 -5.140625 13.09375 -4.546875 C 13.09375 -3.648438 12.832031 -2.851562 12.3125 -2.15625 C 11.789062 -1.457031 11.140625 -0.910156 10.359375 -0.515625 C 9.796875 -0.222656 9.171875 -0.0078125 8.484375 0.125 C 7.804688 0.269531 7.113281 0.34375 6.40625 0.34375 C 5.875 0.34375 5.328125 0.296875 4.765625 0.203125 C 4.210938 0.117188 3.679688 0.03125 3.171875 -0.0625 C 2.660156 -0.15625 2.207031 -0.210938 1.8125 -0.234375 C 1.570312 -0.253906 1.328125 -0.25 1.078125 -0.21875 C 0.835938 -0.1875 0.59375 -0.113281 0.34375 0 C 0.476562 -0.601562 0.609375 -1.328125 0.734375 -2.171875 C 0.867188 -3.023438 0.976562 -4.035156 1.0625 -5.203125 C 1.34375 -4.273438 1.695312 -3.488281 2.125 -2.84375 C 2.5625 -2.207031 3.03125 -1.691406 3.53125 -1.296875 C 4.03125 -0.910156 4.523438 -0.628906 5.015625 -0.453125 C 5.503906 -0.273438 5.957031 -0.1875 6.375 -0.1875 C 6.851562 -0.1875 7.289062 -0.289062 7.6875 -0.5 C 8.082031 -0.707031 8.398438 -0.988281 8.640625 -1.34375 C 8.890625 -1.695312 9.03125 -2.082031 9.0625 -2.5 C 9.101562 -2.925781 9.007812 -3.351562 8.78125 -3.78125 C 8.5625 -4.21875 8.175781 -4.625 7.625 -5 C 7.195312 -5.300781 6.742188 -5.566406 6.265625 -5.796875 C 5.796875 -6.023438 5.394531 -6.226562 5.0625 -6.40625 Z M 5.0625 -6.40625 "/></g></g></g><g fill="#000000" fill-opacity="1"><g transform="translate(181.052292, 246.736801)"><g><path d="M 6.765625 0.25 C 5.828125 0.113281 4.972656 -0.179688 4.203125 -0.640625 C 3.441406 -1.097656 2.78125 -1.675781 2.21875 -2.375 C 1.664062 -3.070312 1.242188 -3.863281 0.953125 -4.75 C 0.660156 -5.632812 0.515625 -6.578125 0.515625 -7.578125 C 0.515625 -8.671875 0.691406 -9.695312 1.046875 -10.65625 C 1.398438 -11.613281 1.90625 -12.453125 2.5625 -13.171875 C 3.226562 -13.898438 4.015625 -14.46875 4.921875 -14.875 C 5.828125 -15.289062 6.828125 -15.5 7.921875 -15.5 C 9.003906 -15.5 10 -15.289062 10.90625 -14.875 C 11.820312 -14.46875 12.609375 -13.898438 13.265625 -13.171875 C 13.921875 -12.453125 14.425781 -11.613281 14.78125 -10.65625 C 15.144531 -9.695312 15.328125 -8.671875 15.328125 -7.578125 C 15.328125 -6.578125 15.171875 -5.628906 14.859375 -4.734375 C 14.554688 -3.847656 14.125 -3.050781 13.5625 -2.34375 C 13 -1.644531 12.328125 -1.066406 11.546875 -0.609375 C 10.765625 -0.160156 9.894531 0.128906 8.9375 0.265625 C 8.039062 0.390625 7.378906 0.5625 6.953125 0.78125 C 6.523438 1 6.269531 1.222656 6.1875 1.453125 C 6.101562 1.691406 6.109375 1.90625 6.203125 2.09375 C 6.273438 2.238281 6.410156 2.347656 6.609375 2.421875 C 6.804688 2.503906 7.03125 2.546875 7.28125 2.546875 C 7.5625 2.546875 7.847656 2.492188 8.140625 2.390625 C 8.429688 2.285156 8.695312 2.113281 8.9375 1.875 C 9.1875 1.632812 9.367188 1.328125 9.484375 0.953125 C 10.203125 1.117188 10.773438 1.359375 11.203125 1.671875 C 11.640625 1.984375 11.9375 2.320312 12.09375 2.6875 C 12.25 3.050781 12.265625 3.390625 12.140625 3.703125 C 12.015625 4.023438 11.75 4.273438 11.34375 4.453125 C 10.945312 4.640625 10.398438 4.710938 9.703125 4.671875 C 9.023438 4.609375 8.394531 4.457031 7.8125 4.21875 C 7.226562 3.976562 6.75 3.679688 6.375 3.328125 C 6 2.984375 5.773438 2.613281 5.703125 2.21875 C 5.671875 1.988281 5.707031 1.695312 5.8125 1.34375 C 5.925781 0.988281 6.242188 0.625 6.765625 0.25 Z M 4.703125 -7.828125 C 4.523438 -6.898438 4.414062 -5.988281 4.375 -5.09375 C 4.332031 -4.207031 4.363281 -3.398438 4.46875 -2.671875 C 4.570312 -1.953125 4.769531 -1.378906 5.0625 -0.953125 C 5.351562 -0.523438 5.738281 -0.3125 6.21875 -0.3125 C 6.820312 -0.3125 7.375 -0.503906 7.875 -0.890625 C 8.382812 -1.273438 8.84375 -1.789062 9.25 -2.4375 C 9.65625 -3.09375 10.003906 -3.832031 10.296875 -4.65625 C 10.585938 -5.476562 10.8125 -6.328125 10.96875 -7.203125 C 11.269531 -8.835938 11.351562 -10.222656 11.21875 -11.359375 C 11.082031 -12.492188 10.800781 -13.359375 10.375 -13.953125 C 9.957031 -14.546875 9.46875 -14.84375 8.90625 -14.84375 C 8.414062 -14.84375 7.898438 -14.59375 7.359375 -14.09375 C 6.828125 -13.59375 6.328125 -12.828125 5.859375 -11.796875 C 5.390625 -10.765625 5.003906 -9.441406 4.703125 -7.828125 Z M 4.703125 -7.828125 "/></g></g></g><g fill="#000000" fill-opacity="1"><g transform="translate(210.846765, 246.736801)"><g><path d="M 1.015625 -5.921875 C 1.015625 -7.066406 1 -8.078125 0.96875 -8.953125 C 0.945312 -9.828125 0.90625 -10.613281 0.84375 -11.3125 C 0.78125 -12.019531 0.695312 -12.679688 0.59375 -13.296875 C 0.5 -13.921875 0.382812 -14.539062 0.25 -15.15625 L 5.078125 -15.15625 C 4.953125 -14.570312 4.835938 -13.984375 4.734375 -13.390625 C 4.640625 -12.804688 4.5625 -12.164062 4.5 -11.46875 C 4.4375 -10.78125 4.390625 -9.988281 4.359375 -9.09375 C 4.328125 -8.207031 4.3125 -7.171875 4.3125 -5.984375 C 4.3125 -4.722656 4.503906 -3.6875 4.890625 -2.875 C 5.273438 -2.070312 5.757812 -1.472656 6.34375 -1.078125 C 6.9375 -0.691406 7.546875 -0.5 8.171875 -0.5 C 8.878906 -0.5 9.460938 -0.671875 9.921875 -1.015625 C 10.390625 -1.367188 10.757812 -1.820312 11.03125 -2.375 C 11.3125 -2.9375 11.507812 -3.535156 11.625 -4.171875 C 11.75 -4.804688 11.8125 -5.410156 11.8125 -5.984375 C 11.8125 -7.429688 11.753906 -8.664062 11.640625 -9.6875 C 11.535156 -10.707031 11.375 -11.566406 11.15625 -12.265625 C 10.945312 -12.972656 10.691406 -13.554688 10.390625 -14.015625 C 10.085938 -14.472656 9.742188 -14.851562 9.359375 -15.15625 L 13.796875 -15.15625 C 13.617188 -14.914062 13.457031 -14.65625 13.3125 -14.375 C 13.164062 -14.09375 13.03125 -13.738281 12.90625 -13.3125 C 12.78125 -12.882812 12.671875 -12.351562 12.578125 -11.71875 C 12.492188 -11.082031 12.425781 -10.296875 12.375 -9.359375 C 12.332031 -8.421875 12.3125 -7.296875 12.3125 -5.984375 C 12.3125 -5.148438 12.21875 -4.351562 12.03125 -3.59375 C 11.851562 -2.832031 11.554688 -2.15625 11.140625 -1.5625 C 10.734375 -0.976562 10.179688 -0.515625 9.484375 -0.171875 C 8.796875 0.171875 7.9375 0.34375 6.90625 0.34375 C 6.1875 0.34375 5.476562 0.207031 4.78125 -0.0625 C 4.082031 -0.34375 3.445312 -0.75 2.875 -1.28125 C 2.3125 -1.8125 1.859375 -2.460938 1.515625 -3.234375 C 1.179688 -4.015625 1.015625 -4.910156 1.015625 -5.921875 Z M 1.015625 -5.921875 "/></g></g></g><g fill="#000000" fill-opacity="1"><g transform="translate(238.76807, 246.736801)"><g><path d="M 0.515625 0 C 0.773438 -1.15625 0.96875 -2.378906 1.09375 -3.671875 C 1.226562 -4.960938 1.296875 -6.265625 1.296875 -7.578125 C 1.296875 -8.890625 1.226562 -10.191406 1.09375 -11.484375 C 0.96875 -12.773438 0.773438 -14 0.515625 -15.15625 L 12.859375 -15.15625 C 12.734375 -14.5625 12.625 -14 12.53125 -13.46875 C 12.4375 -12.9375 12.363281 -12.382812 12.3125 -11.8125 C 12.257812 -11.25 12.207031 -10.625 12.15625 -9.9375 C 11.84375 -11.019531 11.335938 -11.90625 10.640625 -12.59375 C 9.941406 -13.289062 9.125 -13.804688 8.1875 -14.140625 C 7.257812 -14.472656 6.273438 -14.640625 5.234375 -14.640625 C 5.046875 -13.710938 4.894531 -12.722656 4.78125 -11.671875 C 4.664062 -10.617188 4.597656 -9.429688 4.578125 -8.109375 C 4.578125 -7.921875 4.664062 -7.828125 4.84375 -7.828125 L 6.09375 -7.828125 C 6.613281 -7.828125 7.09375 -7.890625 7.53125 -8.015625 C 7.96875 -8.148438 8.394531 -8.390625 8.8125 -8.734375 C 9.238281 -9.078125 9.671875 -9.566406 10.109375 -10.203125 C 10.066406 -9.515625 10.035156 -8.90625 10.015625 -8.375 C 10.003906 -7.84375 10.003906 -7.3125 10.015625 -6.78125 C 10.035156 -6.257812 10.066406 -5.648438 10.109375 -4.953125 C 9.679688 -5.578125 9.253906 -6.054688 8.828125 -6.390625 C 8.398438 -6.734375 7.960938 -6.972656 7.515625 -7.109375 C 7.078125 -7.253906 6.601562 -7.328125 6.09375 -7.328125 L 4.84375 -7.328125 C 4.65625 -7.328125 4.5625 -7.238281 4.5625 -7.0625 C 4.5625 -6.101562 4.617188 -5.050781 4.734375 -3.90625 C 4.847656 -2.757812 5.015625 -1.628906 5.234375 -0.515625 C 6.265625 -0.515625 7.25 -0.679688 8.1875 -1.015625 C 9.125 -1.359375 9.941406 -1.875 10.640625 -2.5625 C 11.335938 -3.257812 11.84375 -4.140625 12.15625 -5.203125 C 12.207031 -4.523438 12.257812 -3.898438 12.3125 -3.328125 C 12.363281 -2.765625 12.4375 -2.21875 12.53125 -1.6875 C 12.625 -1.15625 12.734375 -0.59375 12.859375 0 Z M 0.515625 0 "/></g></g></g><g fill="#000000" fill-opacity="1"><g transform="translate(265.923079, 246.736801)"><g><path d="M 13.8125 0 L 0 0 C 0.6875 -0.925781 1.363281 -1.894531 2.03125 -2.90625 C 2.695312 -3.925781 3.320312 -4.929688 3.90625 -5.921875 C 4.488281 -6.910156 5.015625 -7.84375 5.484375 -8.71875 C 5.953125 -9.601562 6.332031 -10.382812 6.625 -11.0625 C 6.925781 -11.738281 7.117188 -12.257812 7.203125 -12.625 C 7.109375 -13.320312 6.925781 -13.816406 6.65625 -14.109375 C 6.382812 -14.398438 6.0625 -14.546875 5.6875 -14.546875 C 5.332031 -14.546875 4.945312 -14.4375 4.53125 -14.21875 C 4.125 -14 3.710938 -13.710938 3.296875 -13.359375 C 2.878906 -13.003906 2.488281 -12.617188 2.125 -12.203125 C 1.769531 -11.796875 1.460938 -11.390625 1.203125 -10.984375 C 0.953125 -10.585938 0.785156 -10.238281 0.703125 -9.9375 C 0.648438 -10.5625 0.597656 -11.132812 0.546875 -11.65625 C 0.503906 -12.1875 0.441406 -12.722656 0.359375 -13.265625 C 0.273438 -13.816406 0.15625 -14.445312 0 -15.15625 L 13.8125 -15.15625 L 13.8125 -15.140625 C 13.195312 -14.285156 12.5625 -13.347656 11.90625 -12.328125 C 11.25 -11.304688 10.59375 -10.238281 9.9375 -9.125 C 9.289062 -8.019531 8.679688 -6.910156 8.109375 -5.796875 C 7.535156 -4.679688 7.035156 -3.597656 6.609375 -2.546875 C 6.703125 -1.859375 6.882812 -1.363281 7.15625 -1.0625 C 7.425781 -0.769531 7.75 -0.625 8.125 -0.625 C 8.488281 -0.625 8.875 -0.734375 9.28125 -0.953125 C 9.6875 -1.171875 10.097656 -1.457031 10.515625 -1.8125 C 10.929688 -2.164062 11.316406 -2.546875 11.671875 -2.953125 C 12.023438 -3.367188 12.328125 -3.773438 12.578125 -4.171875 C 12.835938 -4.566406 13.015625 -4.910156 13.109375 -5.203125 C 13.171875 -4.597656 13.222656 -4.03125 13.265625 -3.5 C 13.304688 -2.96875 13.367188 -2.425781 13.453125 -1.875 C 13.546875 -1.332031 13.664062 -0.707031 13.8125 0 Z M 13.8125 0 "/></g></g></g></svg>